<mxfile host="app.diagrams.net" modified="2024-07-04T18:10:13.856Z" agent="Mozilla/5.0 (Windows NT 10.0; Win64; x64) AppleWebKit/537.36 (KHTML, like Gecko) Chrome/126.0.0.0 Safari/537.36 Edg/126.0.0.0" etag="aX68dNTZvrJUiMgS-HSi" version="24.6.4" type="device">
  <diagram name="Page-1" id="g76IMlGAZuV-WlDabEqu">
    <mxGraphModel dx="1386" dy="751" grid="1" gridSize="10" guides="1" tooltips="1" connect="1" arrows="1" fold="1" page="1" pageScale="1" pageWidth="827" pageHeight="1169" math="0" shadow="0">
      <root>
        <mxCell id="0" />
        <mxCell id="1" parent="0" />
        <mxCell id="LTT3McrkmNHQ8DJcaem0-16" style="edgeStyle=orthogonalEdgeStyle;rounded=0;orthogonalLoop=1;jettySize=auto;html=1;entryX=0.5;entryY=0;entryDx=0;entryDy=0;" edge="1" parent="1" source="LTT3McrkmNHQ8DJcaem0-1" target="LTT3McrkmNHQ8DJcaem0-2">
          <mxGeometry relative="1" as="geometry" />
        </mxCell>
        <mxCell id="LTT3McrkmNHQ8DJcaem0-1" value="Player starts in room" style="rounded=0;whiteSpace=wrap;html=1;" vertex="1" parent="1">
          <mxGeometry x="100" y="90" width="120" height="60" as="geometry" />
        </mxCell>
        <mxCell id="LTT3McrkmNHQ8DJcaem0-17" style="edgeStyle=orthogonalEdgeStyle;rounded=0;orthogonalLoop=1;jettySize=auto;html=1;" edge="1" parent="1" source="LTT3McrkmNHQ8DJcaem0-2" target="LTT3McrkmNHQ8DJcaem0-5">
          <mxGeometry relative="1" as="geometry" />
        </mxCell>
        <mxCell id="LTT3McrkmNHQ8DJcaem0-2" value="Player looks for clue to solve the puzzle." style="rounded=0;whiteSpace=wrap;html=1;" vertex="1" parent="1">
          <mxGeometry x="100" y="180" width="120" height="60" as="geometry" />
        </mxCell>
        <mxCell id="LTT3McrkmNHQ8DJcaem0-20" style="edgeStyle=orthogonalEdgeStyle;rounded=0;orthogonalLoop=1;jettySize=auto;html=1;entryX=1;entryY=0.5;entryDx=0;entryDy=0;fillColor=#dae8fc;strokeColor=#6c8ebf;" edge="1" parent="1" source="LTT3McrkmNHQ8DJcaem0-3" target="LTT3McrkmNHQ8DJcaem0-1">
          <mxGeometry relative="1" as="geometry">
            <mxPoint x="490" y="110" as="targetPoint" />
          </mxGeometry>
        </mxCell>
        <mxCell id="LTT3McrkmNHQ8DJcaem0-3" value="Player repeats the same process as level 1." style="rounded=0;whiteSpace=wrap;html=1;" vertex="1" parent="1">
          <mxGeometry x="460" y="360" width="120" height="60" as="geometry" />
        </mxCell>
        <mxCell id="LTT3McrkmNHQ8DJcaem0-18" style="edgeStyle=orthogonalEdgeStyle;rounded=0;orthogonalLoop=1;jettySize=auto;html=1;" edge="1" parent="1" source="LTT3McrkmNHQ8DJcaem0-5" target="LTT3McrkmNHQ8DJcaem0-9">
          <mxGeometry relative="1" as="geometry" />
        </mxCell>
        <mxCell id="LTT3McrkmNHQ8DJcaem0-5" value="Once puzzle is solved, player makes their way to exit" style="rounded=0;whiteSpace=wrap;html=1;" vertex="1" parent="1">
          <mxGeometry x="100" y="270" width="120" height="60" as="geometry" />
        </mxCell>
        <mxCell id="LTT3McrkmNHQ8DJcaem0-21" style="edgeStyle=orthogonalEdgeStyle;rounded=0;orthogonalLoop=1;jettySize=auto;html=1;exitX=1;exitY=0.5;exitDx=0;exitDy=0;entryX=0.5;entryY=1;entryDx=0;entryDy=0;" edge="1" parent="1" source="LTT3McrkmNHQ8DJcaem0-6" target="LTT3McrkmNHQ8DJcaem0-3">
          <mxGeometry relative="1" as="geometry" />
        </mxCell>
        <mxCell id="LTT3McrkmNHQ8DJcaem0-6" value="If correct, they will be granted access to level 2." style="rounded=0;whiteSpace=wrap;html=1;" vertex="1" parent="1">
          <mxGeometry x="270" y="420" width="120" height="60" as="geometry" />
        </mxCell>
        <mxCell id="LTT3McrkmNHQ8DJcaem0-15" style="edgeStyle=orthogonalEdgeStyle;rounded=0;orthogonalLoop=1;jettySize=auto;html=1;entryX=0;entryY=0.5;entryDx=0;entryDy=0;" edge="1" parent="1" source="LTT3McrkmNHQ8DJcaem0-7" target="LTT3McrkmNHQ8DJcaem0-9">
          <mxGeometry relative="1" as="geometry" />
        </mxCell>
        <mxCell id="LTT3McrkmNHQ8DJcaem0-7" value="If incorrect, the player will have to attempt the input again." style="rounded=0;whiteSpace=wrap;html=1;" vertex="1" parent="1">
          <mxGeometry x="50" y="450" width="120" height="60" as="geometry" />
        </mxCell>
        <mxCell id="LTT3McrkmNHQ8DJcaem0-12" style="edgeStyle=orthogonalEdgeStyle;rounded=0;orthogonalLoop=1;jettySize=auto;html=1;entryX=0;entryY=0.5;entryDx=0;entryDy=0;" edge="1" parent="1" source="LTT3McrkmNHQ8DJcaem0-9" target="LTT3McrkmNHQ8DJcaem0-6">
          <mxGeometry relative="1" as="geometry" />
        </mxCell>
        <mxCell id="LTT3McrkmNHQ8DJcaem0-9" value="Player enters the puzzle&#39;s answer." style="rounded=0;whiteSpace=wrap;html=1;" vertex="1" parent="1">
          <mxGeometry x="100" y="360" width="120" height="60" as="geometry" />
        </mxCell>
        <mxCell id="LTT3McrkmNHQ8DJcaem0-14" style="edgeStyle=orthogonalEdgeStyle;rounded=0;orthogonalLoop=1;jettySize=auto;html=1;entryX=0.917;entryY=0;entryDx=0;entryDy=0;entryPerimeter=0;" edge="1" parent="1" source="LTT3McrkmNHQ8DJcaem0-9" target="LTT3McrkmNHQ8DJcaem0-7">
          <mxGeometry relative="1" as="geometry" />
        </mxCell>
        <mxCell id="LTT3McrkmNHQ8DJcaem0-22" value="&lt;font size=&quot;3&quot;&gt;&lt;b&gt;MVP&lt;/b&gt;&lt;/font&gt;" style="shape=hexagon;perimeter=hexagonPerimeter2;whiteSpace=wrap;html=1;fixedSize=1;" vertex="1" parent="1">
          <mxGeometry x="470" y="80" width="320" height="80" as="geometry" />
        </mxCell>
        <mxCell id="LTT3McrkmNHQ8DJcaem0-23" value="Goals" style="swimlane;fontStyle=0;childLayout=stackLayout;horizontal=1;startSize=30;horizontalStack=0;resizeParent=1;resizeParentMax=0;resizeLast=0;collapsible=1;marginBottom=0;whiteSpace=wrap;html=1;" vertex="1" parent="1">
          <mxGeometry x="600" y="190" width="180" height="120" as="geometry" />
        </mxCell>
        <mxCell id="LTT3McrkmNHQ8DJcaem0-24" value="- Riddles and math problems are the answer." style="text;strokeColor=none;fillColor=none;align=left;verticalAlign=middle;spacingLeft=4;spacingRight=4;overflow=hidden;points=[[0,0.5],[1,0.5]];portConstraint=eastwest;rotatable=0;whiteSpace=wrap;html=1;" vertex="1" parent="LTT3McrkmNHQ8DJcaem0-23">
          <mxGeometry y="30" width="180" height="30" as="geometry" />
        </mxCell>
        <mxCell id="LTT3McrkmNHQ8DJcaem0-25" value="- User will only be allowed access if answer is correct." style="text;strokeColor=none;fillColor=none;align=left;verticalAlign=middle;spacingLeft=4;spacingRight=4;overflow=hidden;points=[[0,0.5],[1,0.5]];portConstraint=eastwest;rotatable=0;whiteSpace=wrap;html=1;" vertex="1" parent="LTT3McrkmNHQ8DJcaem0-23">
          <mxGeometry y="60" width="180" height="30" as="geometry" />
        </mxCell>
        <mxCell id="LTT3McrkmNHQ8DJcaem0-26" value="- 3 levels that are varying in difficulty to solve." style="text;strokeColor=none;fillColor=none;align=left;verticalAlign=middle;spacingLeft=4;spacingRight=4;overflow=hidden;points=[[0,0.5],[1,0.5]];portConstraint=eastwest;rotatable=0;whiteSpace=wrap;html=1;" vertex="1" parent="LTT3McrkmNHQ8DJcaem0-23">
          <mxGeometry y="90" width="180" height="30" as="geometry" />
        </mxCell>
      </root>
    </mxGraphModel>
  </diagram>
</mxfile>
